<?xml version="1.0" standalone="no"?><!DOCTYPE svg PUBLIC "-//W3C//DTD SVG 1.1//EN"
        "http://www.w3.org/Graphics/SVG/1.1/DTD/svg11.dtd">
<svg t="1498637171943" class="icon" style="" viewBox="0 0 1024 1024" version="1.1" xmlns="http://www.w3.org/2000/svg"
     p-id="7705" xmlns:xlink="http://www.w3.org/1999/xlink" width="200" height="200">
    <defs>
        <style type="text/css"></style>
    </defs>
    <path d="M0 0v1019.418h1024V0H0z m925.928 914.424v22.147H804.621l19.105-0.262H613.591v-0.009h-21.583l-34.03 0.272H98.008v-22.149s-9.985-123.73 172.22-155.403c0 0 138.708-18.726 148.412-56.865 0 0 5.3-4.243 1.392-48.545-8.321-94.325-70.048-138.712-95.008-174.773-24.971-36.067-27.05-77.677-27.05-77.677 0-10.401 4.358-14.21 11.592-20.892 8.956-8.261 6.27-17.042 4.557-26.338-6.5-35.3-7.073-92.016-0.887-127.54 1.386-42.305 40.218-76.285 40.218-76.285 7.291-6.18 14.592-12.985 19.707-21.144 1.428-2.271 2.744-4.707 3.518-7.29 2.925-9.738-6.979-16.888-4.985-27.249 1.786-9.339 17.801-9.799 27.478-10.309 21.803-1.147 43.721-2.007 65.481-0.338 162.919 12.489 216.489 72.465 216.489 72.465 12.678 15.188 21.03 33.76 26.07 52.796 1.494 5.691 2.789 11.502 3.489 17.355 5.075 29.176 5.058 59.604 3.481 89.089-0.751 14.059-2.382 27.895-4.455 41.81-1.075 7.279-0.52 14.057 4.34 19.873 4.069 4.864 8.722 8.266 10.717 14.663 0.935 2.987 1.177 6.215 1.177 9.335 0 0-2.082 41.61-27.052 77.678-24.97 36.063-86.688 80.442-95.013 174.77-3.908 44.3 1.387 48.54 1.387 48.54 9.713 38.152 148.416 56.87 148.416 56.87 184.252 34.171 172.229 155.405 172.229 155.405z"
          p-id="7706" fill="#ffffff"></path>
</svg>