<?xml version="1.0" standalone="no"?><!DOCTYPE svg PUBLIC "-//W3C//DTD SVG 1.1//EN"
        "http://www.w3.org/Graphics/SVG/1.1/DTD/svg11.dtd">
<svg t="1498643396288" class="icon" style="" viewBox="0 0 1348 1024" version="1.1" xmlns="http://www.w3.org/2000/svg"
     p-id="53600" xmlns:xlink="http://www.w3.org/1999/xlink" width="200" height="200">
    <defs>
        <style type="text/css"></style>
    </defs>
    <path d="M1231.502438 970.105263 1231.502438 970.105263C1266.521476 970.105263 1293.473684 944.935618 1293.473684 915.797493L1293.473684 108.202507C1293.473684 79.064383 1266.521476 53.894737 1231.502438 53.894737L115.865985 53.894737C80.846946 53.894737 53.894737 79.064383 53.894737 108.202507L53.894737 915.797493C53.894737 944.935618 80.846946 970.105263 115.865985 970.105263L1231.502438 970.105263ZM1231.502438 1024 115.865985 1024C51.874454 1024 0 975.556074 0 915.797493L0 108.202507C0 48.443923 51.874454 0 115.865985 0L1231.502438 0C1295.493966 0 1347.368421 48.443923 1347.368421 108.202507L1347.368421 915.797493C1347.368421 975.556074 1295.493966 1024 1231.502438 1024L1231.502438 1024Z"
          p-id="53601" fill="#ffffff"></path>
    <path d="M161.246124 786.458904C161.246124 786.458904 159.961148 712.418261 176.790187 696.716299 193.619226 681.014337 200.437889 652.762775 289.640087 639.854042 378.800834 626.985219 369.474398 581.096378 372.355228 582.552851 371.816367 565.174946 370.09616 540.7142 370.09616 540.7142 370.09616 540.7142 323.629773 521.48079 309.93027 483.413008 281.246294 472.140315 285.039045 464.897859 282.241116 450.333141 282.241116 450.333141 273.536437 391.256247 292.935427 392.493255 292.935427 392.493255 305.53648 392.493255 302.448397 378.906166 301.432848 356.320881 301.453576 312.507015 302.987259 297.48341 304.520936 282.399943 315.940643 241.698541 348.313746 235.673137 380.707571 229.647737 367.712736 232.700341 378.489953 231.144108 389.287893 229.647737 386.199811 223.622333 406.241285 223.622333L447.8372 215.302484C467.87868 215.302484 480.707713 247.265059 491.484931 248.801334 502.282871 250.29771 504.852825 244.192499 526.946121 248.222736 559.298495 254.248141 554.801082 297.283891 556.334759 312.367352 557.88917 327.430866 560.728549 368.371685 557.640461 381.918871 554.552374 395.466057 564.168968 393.96968 564.168968 393.96968 587.298536 393.96968 580.044638 451.829517 580.044638 451.829517 576.50059 467.132448 566.821823 468.968001 545.288111 482.275765 531.630064 520.343552 487.920155 548.375644 487.920155 548.375644 487.920155 548.375644 487.712903 579.959134 487.547101 586.802559 488.168863 589.515986 482.593722 628.800819 558.614555 639.854048 647.816753 652.742823 663.21574 681.014337 680.003325 696.716299 696.832366 712.418266 698.63548 786.45891 698.63548 786.45891L161.246124 786.458904 161.246124 786.458904Z"
          p-id="53602" fill="#ffffff"></path>
    <path d="M806.117861 682.666668 1140.265229 682.666668 1140.265229 787.692307 806.117861 787.692307 806.117861 682.666668 806.117861 682.666668Z"
          p-id="53603" fill="#ffffff"></path>
    <path d="M806.117861 472.615386 1140.265229 472.615386 1140.265229 577.641025 806.117861 577.641025 806.117861 472.615386 806.117861 472.615386Z"
          p-id="53604" fill="#ffffff"></path>
    <path d="M806.117861 262.564104 1140.265229 262.564104 1140.265229 367.589742 806.117861 367.589742 806.117861 262.564104 806.117861 262.564104Z"
          p-id="53605" fill="#ffffff"></path>
</svg>