<?xml version="1.0" standalone="no"?><!DOCTYPE svg PUBLIC "-//W3C//DTD SVG 1.1//EN" "http://www.w3.org/Graphics/SVG/1.1/DTD/svg11.dtd"><svg t="1498645012533" class="icon" style="" viewBox="0 0 1029 1024" version="1.1" xmlns="http://www.w3.org/2000/svg" p-id="86969" xmlns:xlink="http://www.w3.org/1999/xlink" width="200.9765625" height="200"><defs><style type="text/css"></style></defs><path d="M511.063851 308.017511a15.949616 15.949616 0 0 0-16.009986-15.90132 15.937542 15.937542 0 0 0-15.949616 15.90132v208.673137H462.30946a16.022059 16.022059 0 0 0-16.082429 15.937542 16.046207 16.046207 0 0 0 16.082429 15.937542h16.794789v16.625754a15.925468 15.925468 0 0 0 15.949616 15.937543 15.937542 15.937542 0 0 0 16.009986-15.937543v-16.637828h210.32726a16.009985 16.009985 0 0 0 16.046207-15.937542 15.985838 15.985838 0 0 0-16.046207-15.937542h-210.32726z" p-id="86970" fill="#ffffff"></path><path d="M514.722241 164.338154a348.62166 348.62166 0 0 0-349.539276 347.728192 348.657882 348.657882 0 0 0 349.539276 347.728192 348.682029 348.682029 0 0 0 349.539276-347.728192 348.645808 348.645808 0 0 0-349.539276-347.728192z m0 637.223985a290.280597 290.280597 0 0 1-290.980883-289.532015 290.220227 290.220227 0 0 1 290.980883-289.459571 290.244375 290.244375 0 0 1 290.980882 289.459571 290.304744 290.304744 0 0 1-290.980882 289.48372z" p-id="86971" fill="#ffffff"></path><path d="M968.8456 0.000362H60.586808A60.369478 60.369478 0 0 0 0 60.237027v903.598269a60.369478 60.369478 0 0 0 60.586808 60.164221h908.258792a60.369478 60.369478 0 0 0 60.586808-60.164221V60.237027A60.369478 60.369478 0 0 0 968.8456 0.000362zM514.710167 886.743473a375.703408 375.703408 0 0 1-376.705541-374.761644 375.703408 375.703408 0 0 1 376.705541-374.725422 375.727555 375.727555 0 0 1 376.705541 374.725422 375.727555 375.727555 0 0 1-376.693467 374.761644z" p-id="86972" fill="#ffffff"></path></svg>