<?xml version="1.0" standalone="no"?><!DOCTYPE svg PUBLIC "-//W3C//DTD SVG 1.1//EN"
        "http://www.w3.org/Graphics/SVG/1.1/DTD/svg11.dtd">
<svg t="1498640461324" class="icon" style="" viewBox="0 0 1024 1024" version="1.1" xmlns="http://www.w3.org/2000/svg"
     p-id="35677" xmlns:xlink="http://www.w3.org/1999/xlink" width="200" height="200">
    <defs>
        <style type="text/css"></style>
    </defs>
    <path d="M928.78 929.28l-30-243.59A27 27 0 0 0 872 662h-45.4a382.2 382.2 0 0 0 37-364.55 381.65 381.65 0 0 0-703.16 297.06 376.39 376.39 0 0 0 37 67.49H151a27 27 0 0 0-26.81 23.8l-29 243.6A27.35 27.35 0 0 0 122 960h145.81a27 27 0 0 0 15-4.58L328.22 925h367.57l45.37 30.42a27 27 0 0 0 15 4.58H902a27.35 27.35 0 0 0 26.8-30.72z m-648.4-714.92A327.55 327.55 0 1 1 184.45 446a325.41 325.41 0 0 1 95.93-231.64zM764.41 906L719 875.58a27 27 0 0 0-15-4.58H320a27 27 0 0 0-15 4.58L259.59 906H152.42L175 716h67.41a381.26 381.26 0 0 0 539.19 0h66.5l23.35 190z"
          fill="#ffffff" p-id="35678"></path>
    <path d="M512 717.17a271.19 271.19 0 1 0-191.76-79.43A269.42 269.42 0 0 0 512 717.17zM358.42 292.4A217.19 217.19 0 1 1 294.81 446a215.77 215.77 0 0 1 63.61-153.6z"
          fill="#ffffff" p-id="35679"></path>
    <path d="M477.52 404.26l34.48-24 34.48 24-12.16-40.21 33.47-25.38-42-0.86L512 298.13l-13.79 39.68-42 0.86 33.47 25.38-12.16 40.21zM551.4 476.79l5.97 25.51 11.14-23.71 26.1 2.21-19.1-17.92 10.16-24.15-22.95 12.64-19.82-17.13 4.93 25.73-22.42 13.55 25.99 3.27zM455.49 478.59l11.14 23.71 5.97-25.51 25.99-3.27-22.41-13.55 4.92-25.73-19.82 17.13-22.95-12.64 10.16 24.15-19.1 17.92 26.1-2.21zM609.43 399.37l10.31 24.09 6.85-25.29 26.09-2.36-21.93-14.33 5.82-25.54-20.41 16.43-22.49-13.43 9.31 24.48-19.72 17.25 26.17-1.3zM397.41 398.02l6.85 25.29 10.31-24.09 26.17 1.3-19.72-17.25 9.31-24.48-22.49 13.42-20.41-16.42 5.82 25.54-21.93 14.33 26.09 2.36zM612.49 530h-201a27 27 0 0 0 0 54h201a27 27 0 1 0 0-54z"
          fill="#ffffff" p-id="35680"></path>
</svg>