<?xml version="1.0" standalone="no"?><!DOCTYPE svg PUBLIC "-//W3C//DTD SVG 1.1//EN" "http://www.w3.org/Graphics/SVG/1.1/DTD/svg11.dtd"><svg t="1498644168950" class="icon" style="" viewBox="0 0 1024 1024" version="1.1" xmlns="http://www.w3.org/2000/svg" p-id="65572" xmlns:xlink="http://www.w3.org/1999/xlink" width="200" height="200"><defs><style type="text/css"></style></defs><path d="M918.030289 0H105.920945C47.449852 0 0 49.107915 0 109.724736v804.550528c0 60.568054 47.449852 109.724736 105.920945 109.724736h812.109344c58.519859 0 105.920945-49.107915 105.920944-109.724736V109.724736c0-60.616821-47.401086-109.724736-105.920944-109.724736zM317.811601 329.125441c58.471092 0 105.920945 49.107915 105.920945 109.724735s-47.449852 109.724736-105.920945 109.724736c-58.519859 0-105.920945-49.107915-105.920945-109.724736s47.401086-109.724736 105.920945-109.724735z m-199.211353 365.700352a219.205639 219.205639 0 0 1 89.535384-113.772359 171.170588 171.170588 0 0 0 109.675969 40.622535c41.646633 0 79.440709-15.556529 109.675969-40.622535a218.76674 218.76674 0 0 1 89.486618 113.772359H118.600248z m484.056767-4.340223h-36.769978V358.482903h36.769978v332.002667z m287.332508-100.751691c-4.925421 19.457853-11.216306 35.599581-18.970188 48.327651a112.797028 112.797028 0 0 1-25.309839 30.137727c-9.168111 7.314982-20.238118 12.874369-33.21002 16.629393a159.027717 159.027717 0 0 1-44.670159 5.65692h-100.312792V358.482903h95.777503c21.603581 0 38.135441 1.609296 49.498047 4.779122 15.946662 4.388989 29.503762 12.28917 40.768836 23.749309 14.678731 14.825031 25.651205 33.697685 32.91742 56.764264s10.923707 49.351748 10.923707 78.904276a277.286599 277.286599 0 0 1-7.412515 67.054005z" p-id="65573" fill="#ffffff"></path><path d="M810.304981 404.469759c-9.850843-4.535289-25.699971-6.827317-47.596152-6.827317h-58.422326v253.683589h59.348891c18.336222 0 32.722355-2.048195 43.158396-6.095819s18.726355-9.802076 24.919707-17.214591c8.729212-10.387275 15.507763-24.432041 20.384417-41.987999 4.876655-17.604724 7.314982-38.915706 7.314982-63.981713 0-34.721783-4.779122-61.397085-14.288598-80.074674-9.558244-18.677588-21.164682-31.161825-34.819317-37.501476z" p-id="65574" fill="#ffffff"></path></svg>