<?xml version="1.0" standalone="no"?><!DOCTYPE svg PUBLIC "-//W3C//DTD SVG 1.1//EN"
        "http://www.w3.org/Graphics/SVG/1.1/DTD/svg11.dtd">
<svg t="1498639610984" class="icon" style="" viewBox="0 0 1024 1024" version="1.1" xmlns="http://www.w3.org/2000/svg"
     p-id="33489" xmlns:xlink="http://www.w3.org/1999/xlink" width="200" height="200">
    <defs>
        <style type="text/css"></style>
    </defs>
    <path d="M512.001 285.925c-46.832 0-84.779 37.946-84.779 84.778v56.519h169.556v-56.519c0-46.83-37.944-84.778-84.777-84.778zM512.001 512c-31.544 0-57.099 25.28-57.099 56.521 0 20.972 11.701 39.076 28.838 48.791v64.245c0 15.563 12.668 28.26 28.26 28.26 15.592 0 28.259-12.696 28.259-28.26v-64.245c17.137-9.715 28.811-27.819 28.811-48.791 0-31.241-25.554-56.521-57.069-56.521z"
          p-id="33490" fill="#2196F3"></path>
    <path d="M0 0v1024h1024V0H0z m738.074 721.073c0 40.57-31.211 73.52-69.571 73.52H355.498c-38.387 0-69.571-32.949-69.571-73.52V500.685c0-40.513 31.186-73.462 69.571-73.462h18.049a142.655 142.655 0 0 1-2.843-28.26v-28.259c0-78.043 63.252-141.295 141.297-141.295 78.017 0 141.297 63.252 141.297 141.295v28.259c0 9.66-0.994 19.098-2.844 28.26h18.049c38.36 0 69.571 32.95 69.571 73.462v220.388z"
          p-id="33491" fill="#ffffff"></path>
</svg>