<?xml version="1.0" standalone="no"?><!DOCTYPE svg PUBLIC "-//W3C//DTD SVG 1.1//EN"
        "http://www.w3.org/Graphics/SVG/1.1/DTD/svg11.dtd">
<svg t="1498639351661" class="icon" style="" viewBox="0 0 1024 1024" version="1.1" xmlns="http://www.w3.org/2000/svg"
     p-id="14324" xmlns:xlink="http://www.w3.org/1999/xlink" width="200" height="200">
    <defs>
        <style type="text/css"></style>
    </defs>
    <path d="M1023.986688 512.975862 1023.986688 1023.98976 512.733177 1023.98976c-0.245758 0-0.487419 0.01024-0.733177 0.01024C229.231372 1023.997952 0.001024 794.769652 0.001024 511.998976S229.231372 0 512 0s511.998976 229.230348 511.998976 511.998976C1023.998976 512.326653 1023.988736 512.650233 1023.986688 512.975862zM712.0364 231.845618c-91.544685-68.875599-209.752014-51.867129-259.157472 28.681953-38.178434 62.244242-25.184004 142.463599 22.57283 201.879581L263.784882 733.670231c-4.984782 6.389696-3.848154 15.6097 2.541543 20.594482l57.841086 45.133373c6.389696 4.984782 15.6097 3.848154 20.594482-2.541543l40.085103-51.371518 66.366824 51.787258 38.313601-49.100309-66.366824-51.787258 21.42801-27.461357 54.830556 42.78434 37.18926-47.658531-54.830556-42.78434 74.994962-96.109631c67.513693 30.150354 146.324041 23.844626 197.056589-27.948777C822.748125 426.848084 805.868677 302.44152 712.0364 231.845618zM584.172846 403.583036c-33.500849-26.140411-39.466613-74.489111-13.326203-107.987912 26.140411-33.500849 74.489111-39.466613 107.987912-13.326203 33.500849 26.140411 39.466613 74.489111 13.326203 107.987912C666.020348 423.757682 617.671647 429.723447 584.172846 403.583036z"
          p-id="14325" fill="#ffffff"></path>
</svg>