<?xml version="1.0" standalone="no"?><!DOCTYPE svg PUBLIC "-//W3C//DTD SVG 1.1//EN"
        "http://www.w3.org/Graphics/SVG/1.1/DTD/svg11.dtd">
<svg t="1498640252330" class="icon" style="" viewBox="0 0 1024 1024" version="1.1" xmlns="http://www.w3.org/2000/svg"
     p-id="34357" xmlns:xlink="http://www.w3.org/1999/xlink" width="200" height="200">
    <defs>
        <style type="text/css"></style>
    </defs>
    <path d="M905.483196 622.163558l-72.597551-41.998583a25.049155 25.049155 0 0 0-10.34965-37.64873 677.977125 677.977125 0 0 0-129.295638-40.948618A102.596538 102.596538 0 0 0 665.491293 495.567829a859.770991 859.770991 0 0 0-96.446745-11.54961 245.39172 245.39172 0 1 0-114.446139 0 859.920986 859.920986 0 0 0-96.596741 11.54961 102.596538 102.596538 0 0 0-28.349043 5.549813A677.977125 677.977125 0 0 0 200.506982 542.516245a25.049155 25.049155 0 0 0-10.349651 37.64873l-72.59755 41.998583a103.646503 103.646503 0 0 0 103.646503 179.993927l49.648325-28.649033v39.298674a212.242839 212.242839 0 0 0 211.192874 211.192874h45.748456a212.242839 212.242839 0 0 0 211.642859-211.492864V765.55872l62.84788 36.298775a103.646503 103.646503 0 0 0 103.646503-179.993927zM670.441126 800.207551a38.998684 38.998684 0 0 1-38.848689 38.848689H374.651106A38.998684 38.998684 0 0 1 335.502427 800.207551V645.562769a38.998684 38.998684 0 0 1 38.84869-38.84869h257.24132A38.998684 38.998684 0 0 1 670.441126 645.562769z"
          p-id="34358" fill="#ffffff"></path>
</svg>